<?xml version="1.0" standalone="no"?><!DOCTYPE svg PUBLIC "-//W3C//DTD SVG 1.1//EN" "http://www.w3.org/Graphics/SVG/1.1/DTD/svg11.dtd"><svg t="1623043517964" class="icon" viewBox="0 0 1024 1024" version="1.1" xmlns="http://www.w3.org/2000/svg" p-id="2550" xmlns:xlink="http://www.w3.org/1999/xlink" width="550" height="550"><defs><style type="text/css"></style></defs><path d="M921.6 222.208 669.696 222.208c0-47.104-37.888-84.992-84.992-84.992L417.792 137.216c-47.104 0-84.992 38.912-84.992 84.992L84.992 222.208c-21.504 0-43.008 17.408-43.008 43.008l0 584.704c0 21.504 17.408 43.008 43.008 43.008l831.488 0c21.504 0 43.008-17.408 43.008-43.008L959.488 260.096C960.512 238.592 943.104 222.208 921.6 222.208zM417.792 179.2l166.912 0c21.504 0 43.008 17.408 43.008 43.008L379.904 222.208C379.904 196.608 397.312 179.2 417.792 179.2zM171.008 720.896c-13.312 0-21.504 8.192-21.504 21.504 0 13.312 8.192 21.504 21.504 21.504l0 84.992L84.992 848.896 84.992 260.096l84.992 0L169.984 720.896zM793.6 720.896c-13.312 0-21.504 8.192-21.504 21.504 0 13.312 8.192 21.504 21.504 21.504l0 84.992L212.992 848.896l0-84.992c13.312 0 21.504-8.192 21.504-21.504 0-12.288-8.192-21.504-21.504-21.504l0-460.8 584.704 0 0 460.8L793.6 720.896zM921.6 844.8l-84.992 0 0-84.992c13.312 0 21.504-8.192 21.504-21.504 0-13.312-8.192-21.504-21.504-21.504L836.608 260.096 921.6 260.096 921.6 844.8zM273.408 427.008l43.008 0c13.312 0 21.504-8.192 21.504-21.504s-8.192-21.504-21.504-21.504l-43.008 0c-13.312 0-21.504 8.192-21.504 21.504S264.192 427.008 273.408 427.008zM273.408 346.112l123.904 0c13.312 0 21.504-8.192 21.504-21.504 0-13.312-8.192-21.504-21.504-21.504L273.408 303.104c-13.312 0-21.504 8.192-21.504 21.504C251.904 336.896 264.192 346.112 273.408 346.112z" p-id="2551" fill="#000000"></path></svg>